<svg width="27" height="27" viewBox="0 0 27 27" fill="none" xmlns="http://www.w3.org/2000/svg">
<path d="M13.125 13.125C16.7494 13.125 19.6875 10.1869 19.6875 6.5625C19.6875 2.93813 16.7494 0 13.125 0C9.50063 0 6.5625 2.93813 6.5625 6.5625C6.5625 10.1869 9.50063 13.125 13.125 13.125ZM17.5 6.5625C17.5 8.97875 15.5412 10.9375 13.125 10.9375C10.7088 10.9375 8.75 8.97875 8.75 6.5625C8.75 4.14625 10.7088 2.1875 13.125 2.1875C15.5412 2.1875 17.5 4.14625 17.5 6.5625Z" fill="#A9D9D0"/>
<path d="M26.25 24.0625C26.25 26.25 24.0625 26.25 24.0625 26.25H2.1875C2.1875 26.25 0 26.25 0 24.0625C0 21.875 2.1875 15.3125 13.125 15.3125C24.0625 15.3125 26.25 21.875 26.25 24.0625ZM24.0625 24.0549C24.0593 23.515 23.7261 21.8979 22.2422 20.414C20.8154 18.9872 18.1324 17.5 13.125 17.5C8.11755 17.5 5.43452 18.9872 4.00771 20.414C2.52384 21.8979 2.19062 23.515 2.1875 24.0549H24.0625Z" fill="#A9D9D0"/>
</svg>
